<svg width="720" height="1024" viewBox="0 0 720 1024" fill="none" xmlns="http://www.w3.org/2000/svg" xmlns:xlink="http://www.w3.org/1999/xlink">
<g clip-path="url(#clip0_1253_10571)">
<rect width="720" height="1024" fill="#09090A"/>
<g clip-path="url(#clip1_1253_10571)">
<rect width="841.395" height="1472.08" transform="translate(90.6541 -208.339) rotate(11.2265)" fill="black"/>
<g clip-path="url(#clip2_1253_10571)">
<rect x="214.241" y="690.863" width="508.433" height="256.733" rx="21.5742" transform="rotate(11.2265 214.241 690.863)" fill="#1B1B1F"/>
<rect x="214.241" y="690.863" width="508.433" height="256.733" rx="21.5742" transform="rotate(11.2265 214.241 690.863)" fill="url(#pattern0)"/>
<rect x="214.241" y="690.863" width="508.433" height="295.567" transform="rotate(11.2265 214.241 690.863)" fill="url(#paint0_linear_1253_10571)" fill-opacity="0.7"/>
<!-- filters will go here -->
</g>
<g clip-path="url(#clip3_1253_10571)">
<rect x="267.024" y="424.935" width="244.508" height="256.733" rx="21.5742" transform="rotate(11.2265 267.024 424.935)" fill="#1B1B1F"/>
<rect x="267.024" y="424.935" width="244.508" height="256.733" rx="21.5742" transform="rotate(11.2265 267.024 424.935)" fill="url(#pattern1)"/>
<rect x="263.94" y="340.741" width="283.342" height="353.817" transform="rotate(11.2265 263.94 340.741)" fill="url(#pattern2)"/>
</g>
<rect x="525.899" y="476.318" width="244.508" height="256.733" rx="21.5742" transform="rotate(11.2265 525.899 476.318)" fill="#1B1B1F"/>
<rect x="525.899" y="476.318" width="244.508" height="256.733" rx="21.5742" transform="rotate(11.2265 525.899 476.318)" fill="url(#pattern3)"/>
<rect x="118.508" y="-160.286" width="244.508" height="256.733" rx="21.5742" transform="rotate(11.2265 118.508 -160.286)" fill="#1B1B1F"/>
<rect x="118.508" y="-160.286" width="244.508" height="256.733" rx="21.5742" transform="rotate(11.2265 118.508 -160.286)" fill="url(#pattern4)"/>
<g clip-path="url(#clip4_1253_10571)">
<rect x="-93.744" y="909.07" width="244.508" height="256.733" rx="21.5742" transform="rotate(11.2265 -93.744 909.07)" fill="#1B1B1F"/>
<rect x="-93.744" y="909.07" width="244.508" height="256.733" rx="21.5742" transform="rotate(11.2265 -93.744 909.07)" fill="url(#pattern5)"/>
<rect x="-93.744" y="909.07" width="244.508" height="305.635" transform="rotate(11.2265 -93.744 909.07)" fill="url(#pattern6)"/>

</g>
<rect x="65.725" y="105.642" width="244.508" height="256.733" rx="21.5742" transform="rotate(11.2265 65.725 105.642)" fill="#1B1B1F"/>
<rect x="65.725" y="105.642" width="244.508" height="256.733" rx="21.5742" transform="rotate(11.2265 65.725 105.642)" fill="url(#pattern7)"/>
<g clip-path="url(#clip6_1253_10571)">
<rect x="375.267" y="-109.324" width="244.508" height="256.733" rx="21.5742" transform="rotate(11.2265 375.267 -109.324)" fill="#1B1B1F"/>
<rect x="373.15" y="-109.744" width="258.891" height="322.894" transform="rotate(11.2265 373.15 -109.744)" fill="url(#pattern8)"/>
</g>
<rect x="163.015" y="960.033" width="506.275" height="530.726" rx="21.5742" transform="rotate(11.2265 163.015 960.033)" fill="#1B1B1F"/>
<rect x="163.015" y="960.033" width="506.275" height="530.726" rx="21.5742" transform="rotate(11.2265 163.015 960.033)" fill="url(#pattern9)"/>
<g clip-path="url(#clip7_1253_10571)">
<rect x="322.484" y="156.605" width="244.508" height="256.733" rx="21.5742" transform="rotate(11.2265 322.484 156.605)" fill="#1B1B1F"/>
<rect x="322.484" y="156.605" width="244.508" height="256.733" rx="21.5742" transform="rotate(11.2265 322.484 156.605)" fill="url(#pattern10)"/>
<rect x="322.484" y="156.605" width="244.508" height="256.733" transform="rotate(11.2265 322.484 156.605)" fill="url(#paint1_linear_1253_10571)" fill-opacity="0.7"/>
<g clip-path="url(#clip8_1253_10571)">
</g>
<g clip-path="url(#clip9_1253_10571)">
<rect x="297.836" y="373.13" width="21.5742" height="21.5742" rx="10.7871" transform="rotate(11.2265 297.836 373.13)" fill="url(#pattern12)"/>
<rect x="298.118" y="373.553" width="20.8551" height="20.8551" rx="10.4275" transform="rotate(11.2265 298.118 373.553)" stroke="black" stroke-opacity="0.098" stroke-width="0.719141"/>
</g>
<g clip-path="url(#clip10_1253_10571)">
</g>

</g>
<rect x="632.025" y="-58.3608" width="244.508" height="527.85" rx="21.5742" transform="rotate(11.2265 632.025 -58.3608)" fill="#1B1B1F"/>
<rect x="632.025" y="-58.3608" width="244.508" height="527.85" rx="21.5742" transform="rotate(11.2265 632.025 -58.3608)" fill="url(#pattern13)"/>
<rect x="10.2659" y="373.972" width="244.508" height="527.85" rx="21.5742" transform="rotate(11.2265 10.2659 373.972)" fill="#1B1B1F"/>
<rect x="10.2659" y="373.972" width="244.508" height="527.85" rx="21.5742" transform="rotate(11.2265 10.2659 373.972)" fill="url(#pattern14)"/>
<!-- clips will go here -->
</g>
</g>
<defs>
<pattern id="pattern0" patternContentUnits="objectBoundingBox" width="1" height="1">
<use xlink:href="#image0_1253_10571" transform="matrix(0.000707214 0 0 0.00140056 0 -0.159664)"/>
</pattern>
<filter id="filter0_b_1253_10571" x="502.774" y="897.008" width="233.828" height="205.128" filterUnits="userSpaceOnUse" color-interpolation-filters="sRGB">
<feFlood flood-opacity="0" result="BackgroundImageFix"/>
<feGaussianBlur in="BackgroundImageFix" stdDeviation="43.1485"/>
<feComposite in2="SourceAlpha" operator="in" result="effect1_backgroundBlur_1253_10571"/>
<feBlend mode="normal" in="SourceGraphic" in2="effect1_backgroundBlur_1253_10571" result="shape"/>
</filter>
<filter id="filter1_b_1253_10571" x="140.975" y="629.928" width="243.048" height="205.603" filterUnits="userSpaceOnUse" color-interpolation-filters="sRGB">
<feFlood flood-opacity="0" result="BackgroundImageFix"/>
<feGaussianBlur in="BackgroundImageFix" stdDeviation="43.1485"/>
<feComposite in2="SourceAlpha" operator="in" result="effect1_backgroundBlur_1253_10571"/>
<feBlend mode="normal" in="SourceGraphic" in2="effect1_backgroundBlur_1253_10571" result="shape"/>
</filter>
<pattern id="pattern1" patternContentUnits="objectBoundingBox" width="1" height="1">
<use xlink:href="#image1_1253_10571" transform="matrix(0.00220588 0 0 0.00210084 -0.2875 0)"/>
</pattern>
<pattern id="pattern2" patternContentUnits="objectBoundingBox" width="1" height="1">
<use xlink:href="#image2_1253_10571" transform="matrix(0.00138889 0 0 0.00111224 0 -0.000508134)"/>
</pattern>
<pattern id="pattern3" patternContentUnits="objectBoundingBox" width="1" height="1">
<use xlink:href="#image3_1253_10571" transform="matrix(0.00221053 0 0 0.00210526 -0.289158 0)"/>
</pattern>
<pattern id="pattern4" patternContentUnits="objectBoundingBox" width="1" height="1">
<use xlink:href="#image4_1253_10571" transform="matrix(0.00249377 0 0 0.00237501 0 -0.34788)"/>
</pattern>
<pattern id="pattern5" patternContentUnits="objectBoundingBox" width="1" height="1">
<use xlink:href="#image5_1253_10571" transform="matrix(0.00220588 0 0 0.00210084 -0.2875 0)"/>
</pattern>
<pattern id="pattern6" patternContentUnits="objectBoundingBox" width="1" height="1">
<use xlink:href="#image6_1253_10571" transform="scale(0.00138889 0.00111111)"/>
</pattern>
<pattern id="pattern7" patternContentUnits="objectBoundingBox" width="1" height="1">
<use xlink:href="#image7_1253_10571" transform="matrix(0.00175131 0 0 0.00166792 0 -0.0954466)"/>
</pattern>
<pattern id="pattern8" patternContentUnits="objectBoundingBox" width="1" height="1">
<use xlink:href="#image8_1253_10571" transform="matrix(0.00138889 0 0 0.00111359 0 -0.00111357)"/>
</pattern>
<pattern id="pattern9" patternContentUnits="objectBoundingBox" width="1" height="1">
<use xlink:href="#image9_1253_10571" transform="matrix(0.00175131 0 0 0.00167063 0 -0.0964148)"/>
</pattern>
<pattern id="pattern10" patternContentUnits="objectBoundingBox" width="1" height="1">
<use xlink:href="#image10_1253_10571" transform="matrix(0.00210084 0 0 0.0020008 0 -0.214286)"/>
</pattern>
<pattern id="pattern11" patternContentUnits="objectBoundingBox" width="1" height="1">
<use xlink:href="#image11_1253_10571" transform="scale(0.00208333 0.00208768)"/>
</pattern>
<pattern id="pattern12" patternContentUnits="objectBoundingBox" width="1" height="1">
<use xlink:href="#image12_1253_10571" transform="scale(0.00208333)"/>
</pattern>
<pattern id="pattern13" patternContentUnits="objectBoundingBox" width="1" height="1">
<use xlink:href="#image13_1253_10571" transform="matrix(0.00147059 0 0 0.000681199 -0.219118 0)"/>
</pattern>
<pattern id="pattern14" patternContentUnits="objectBoundingBox" width="1" height="1">
<use xlink:href="#image14_1253_10571" transform="matrix(0.00147059 0 0 0.000681199 -0.219118 0)"/>
</pattern>
<linearGradient id="paint0_linear_1253_10571" x1="468.458" y1="690.863" x2="468.458" y2="986.43" gradientUnits="userSpaceOnUse">
<stop stop-opacity="0"/>
<stop offset="1"/>
</linearGradient>
<linearGradient id="paint1_linear_1253_10571" x1="444.738" y1="156.605" x2="444.738" y2="413.338" gradientUnits="userSpaceOnUse">
<stop stop-opacity="0"/>
<stop offset="1"/>
</linearGradient>
<clipPath id="clip0_1253_10571">
<rect width="720" height="1024" fill="white"/>
</clipPath>
<clipPath id="clip1_1253_10571">
<rect width="841.395" height="1472.08" fill="white" transform="translate(90.6541 -208.339) rotate(11.2265)"/>
</clipPath>
<clipPath id="clip2_1253_10571">
<rect x="214.241" y="690.863" width="508.433" height="256.733" rx="21.5742" transform="rotate(11.2265 214.241 690.863)" fill="white"/>
</clipPath>
<clipPath id="clip3_1253_10571">
<rect x="267.024" y="424.935" width="244.508" height="256.733" rx="21.5742" transform="rotate(11.2265 267.024 424.935)" fill="white"/>
</clipPath>
<clipPath id="clip4_1253_10571">
<rect x="-93.744" y="909.07" width="244.508" height="256.733" rx="21.5742" transform="rotate(11.2265 -93.744 909.07)" fill="white"/>
</clipPath>
<clipPath id="clip5_1253_10571">
<rect width="17.2594" height="17.2594" fill="white" transform="translate(108.867 966.882) rotate(11.2265)"/>
</clipPath>
<clipPath id="clip6_1253_10571">
<rect x="375.267" y="-109.324" width="244.508" height="256.733" rx="21.5742" transform="rotate(11.2265 375.267 -109.324)" fill="white"/>
</clipPath>
<clipPath id="clip7_1253_10571">
<rect x="322.484" y="156.605" width="244.508" height="256.733" rx="21.5742" transform="rotate(11.2265 322.484 156.605)" fill="white"/>
</clipPath>
<clipPath id="clip8_1253_10571">
<rect width="17.2594" height="17.2594" fill="white" transform="translate(464.209 340.167) rotate(11.2265)"/>
</clipPath>
<clipPath id="clip9_1253_10571">
<rect x="297.836" y="373.13" width="21.5742" height="21.5742" rx="10.7871" transform="rotate(11.2265 297.836 373.13)" fill="white"/>
</clipPath>
<clipPath id="clip10_1253_10571">
<rect x="434.436" y="404.642" width="12.9445" height="12.9445" rx="3.59571" transform="rotate(11.2265 434.436 404.642)" fill="white"/>
</clipPath>
<clipPath id="clip11_1253_10571">
<rect width="12.9445" height="12.9445" fill="white" transform="translate(475.248 412.743) rotate(11.2265)"/>
</clipPath>
<clipPath id="clip12_1253_10571">
<rect width="17.2594" height="17.2594" fill="white" transform="translate(212.877 431.783) rotate(11.2265)"/>
</clipPath>
<!-- images will go here -->
</defs>
</svg>
